# xmcd
#
# Track frame offsets: 
#        150
#        3930
#        22675
#        43505
#        65715
#        88050
#        107890
#        131230
#        151390
#        157735
#        178790
#        193605
#        209090
#        227375
#        245810
#        251870
#        276775
#        314837
#
# Disc length: 4676 seconds
#
# Revision: 0
# Processed by: cddbd v1.5.1PL2 Copyright (c) Steve Scherf et al.
# Submitted via: ExactAudioCopy v0.95a5
#
DISCID=00124212
DTITLE=India Arie - Acoustic Soul
DYEAR=2001
DGENRE=R&B
TTITLE0=Intro
TTITLE1=Video
TTITLE2=Promises
TTITLE3=Brown Skin
TTITLE4=Strength, Courange And Wisdom
TTITLE5=Nature
TTITLE6=Back To The Middle
TTITLE7=Ready For Love
TTITLE8=Interlude
TTITLE9=Always In My Head
TTITLE10=I See God In You
TTITLE11=Simple
TTITLE12=Part Of My Life
TTITLE13=Beautiful
TTITLE14=Outro
TTITLE15=Wonderful (Bonus Tracks)
TTITLE16=Strength, Courage And Wisdom (Live) (Bonus Tracks)
TTITLE17=DATA
EXTD=
EXTT0=
EXTT1=
EXTT2=
EXTT3=
EXTT4=
EXTT5=
EXTT6=
EXTT7=
EXTT8=
EXTT9=
EXTT10=
EXTT11=
EXTT12=
EXTT13=
EXTT14=
EXTT15=
EXTT16=
EXTT17=
PLAYORDER=
